<?xml version="1.0" encoding="UTF-8"?>
<svg id="Calque_2" data-name="Calque 2" xmlns="http://www.w3.org/2000/svg" viewBox="0 0 622.84 106.11">
  <defs>
    <style>
      .cls-1 {
        fill: #fff;
      }

      .cls-1, .cls-2 {
        stroke-width: 0px;
      }

      .cls-2 {
        fill: #9262f4;
      }
    </style>
  </defs>
  <g id="Calque_1-2" data-name="Calque 1">
    <g>
      <g>
        <polygon class="cls-2" points="41.39 23.99 27.69 23.99 0 53.69 20.96 83.2 34.96 83.2 13.87 53.5 41.39 23.99"/>
        <polygon class="cls-2" points="196.74 23.99 182.74 23.99 203.83 53.69 176.31 83.2 190.01 83.2 217.7 53.5 196.74 23.99"/>
        <g>
          <polygon class="cls-1" points="157.7 76.45 139.06 85.96 150.03 106.11 173.82 106.11 157.7 76.45"/>
          <path class="cls-1" d="M162.77,65.11l5.23-2.66v-27.84s-8.28,4.47-20.08,10.86c-.35.19-.71.38-1.06.58l-4.39,2.38c-.25.13-.52.28-.78.42l-17.63,9.57-9.18,4.98c-4.53,2.48-9.04,4.93-13.35,7.28l14.59-26.83,4.21,7.72,18.41-9.99L116.14,0l-48.68,89.55c-.47.85-9,16.56-9,16.56h23.79l47.02-23.94,6.04-3.08,18.65-9.51,8.8-4.48Z"/>
        </g>
        <path class="cls-2" d="M92.28,0h11.87l-58.45,106.11h-11.87L92.28,0Z"/>
      </g>
      <g>
        <path class="cls-1" d="M265.68,54.56h-16.21l-4.81,7.58h-4.68l19.85-30.33h4.29l7.67,30.33h-4.29l-1.82-7.58ZM264.81,51.09l-3.6-14.95-9.53,14.95h13.13Z"/>
        <path class="cls-1" d="M308.45,31.81l-6.07,30.33h-4.33l2.69-13.43h-17.42l-2.69,13.43h-4.33l6.07-30.33h4.33l-2.6,13h17.42l2.6-13h4.33Z"/>
        <path class="cls-1" d="M317.56,31.81h4.33l-5.33,26.56h16.47l-.74,3.77h-20.8l6.07-30.33Z"/>
        <path class="cls-1" d="M346.85,35.58l-1.86,9.32h15.25l-.74,3.68h-15.25l-1.95,9.79h17.72l-.74,3.77h-22.06l6.07-30.33h21.41l-.74,3.77h-17.12Z"/>
        <path class="cls-1" d="M404.62,31.81l-6.07,30.33h-4.16l4.42-21.93-14.34,18.24h-1.99l-7.58-18.68-4.46,22.36h-4.16l6.07-30.33h3.51l8.45,21.36,16.6-21.36h3.73Z"/>
        <path class="cls-1" d="M425.39,31.81h4.33l-5.33,26.56h16.47l-.74,3.77h-20.8l6.07-30.33Z"/>
        <path class="cls-1" d="M466.3,54.56h-16.21l-4.81,7.58h-4.68l19.85-30.33h4.29l7.67,30.33h-4.29l-1.82-7.58ZM465.43,51.09l-3.6-14.95-9.53,14.95h13.13Z"/>
        <path class="cls-1" d="M504.7,52.65c0,6.28-5.24,9.49-13.17,9.49h-14.6l6.07-30.33h13.43c6.07,0,9.58,2.3,9.58,6.67,0,4.07-2.38,6.8-5.59,8.02,2.64.91,4.29,2.99,4.29,6.15ZM500.41,52.7c0-3.08-2.25-4.16-6.33-4.16h-10.14l-1.99,10.1h9.88c5.46,0,8.58-2.08,8.58-5.94ZM486.58,35.32l-1.95,9.71h8.88c4.77,0,7.97-1.95,7.97-5.85,0-2.64-2.21-3.86-5.98-3.86h-8.93Z"/>
        <path class="cls-1" d="M515.79,31.81h4.33l-6.07,30.33h-4.33l6.07-30.33Z"/>
        <path class="cls-1" d="M544.26,54.56h-16.21l-4.81,7.58h-4.68l19.85-30.33h4.29l7.67,30.33h-4.29l-1.82-7.58ZM543.4,51.09l-3.6-14.95-9.53,14.95h13.13Z"/>
        <path class="cls-1" d="M560.95,31.81h11.87c9.19,0,14.52,4.9,14.52,12.44,0,10.7-7.54,17.9-18.89,17.9h-13.56l6.07-30.33ZM568.58,58.37c8.93,0,14.39-5.85,14.39-13.87,0-5.46-3.51-8.93-10.57-8.93h-7.89l-4.55,22.79h8.62Z"/>
        <path class="cls-1" d="M622.84,31.81l-6.07,30.33h-4.33l2.69-13.43h-17.42l-2.69,13.43h-4.33l6.07-30.33h4.33l-2.6,13h17.42l2.6-13h4.33Z"/>
      </g>
      <g>
        <path class="cls-1" d="M235.59,79.8l-1.48,7.35h10.61l-.51,2.59h-10.61l-1.69,8.53h-3.01l4.22-21.1h14.89l-.51,2.62h-11.9Z"/>
        <path class="cls-1" d="M261.56,91.41l3.86,6.87h-3.2l-3.68-6.45h-6.21l-1.27,6.45h-3.04l4.22-21.1h7.87c4.94,0,7.78,2.26,7.78,6.18,0,4.19-2.35,7.02-6.33,8.05ZM264.87,83.63c0-2.53-1.81-3.83-5.03-3.83h-5.09l-1.9,9.46h5.21c4.31,0,6.81-1.93,6.81-5.64Z"/>
        <path class="cls-1" d="M270.17,89.63c0-7.02,5.03-12.69,12.81-12.69,6.3,0,9.94,3.62,9.94,8.89,0,7.02-5.06,12.69-12.84,12.69-6.3,0-9.91-3.62-9.91-8.89ZM289.88,86.01c0-3.8-2.47-6.39-7.14-6.39-5.85,0-9.55,4.52-9.55,9.82,0,3.8,2.5,6.39,7.17,6.39,5.85,0,9.52-4.52,9.52-9.82Z"/>
        <path class="cls-1" d="M317.6,77.18l-4.22,21.1h-2.47l-9.43-16.24-3.22,16.24h-3.01l4.22-21.1h2.47l9.43,16.24,3.22-16.24h3.01Z"/>
        <path class="cls-1" d="M327.57,79.8h-7.2l.51-2.62h17.45l-.54,2.62h-7.2l-3.71,18.47h-2.98l3.68-18.47Z"/>
        <path class="cls-1" d="M352.19,79.8l-1.29,6.48h10.61l-.51,2.56h-10.61l-1.36,6.81h12.33l-.51,2.62h-15.34l4.22-21.1h14.89l-.51,2.62h-11.9Z"/>
        <path class="cls-1" d="M388.05,77.18l-4.22,21.1h-2.47l-9.43-16.24-3.22,16.24h-3.01l4.22-21.1h2.47l9.43,16.24,3.22-16.24h3.01Z"/>
        <path class="cls-1" d="M394.37,77.18h8.26c6.39,0,10.1,3.41,10.1,8.65,0,7.44-5.24,12.45-13.14,12.45h-9.43l4.22-21.1ZM399.68,95.66c6.21,0,10.01-4.07,10.01-9.64,0-3.8-2.44-6.21-7.35-6.21h-5.49l-3.16,15.85h6Z"/>
        <path class="cls-1" d="M427.36,77.18h8.26c6.39,0,10.1,3.41,10.1,8.65,0,7.44-5.24,12.45-13.14,12.45h-9.43l4.22-21.1ZM432.67,95.66c6.21,0,10.01-4.07,10.01-9.64,0-3.8-2.44-6.21-7.35-6.21h-5.49l-3.16,15.85h6Z"/>
        <path class="cls-1" d="M454.72,79.8l-1.29,6.48h10.61l-.51,2.56h-10.61l-1.36,6.81h12.33l-.51,2.62h-15.34l4.22-21.1h14.89l-.51,2.62h-11.9Z"/>
        <path class="cls-1" d="M490.46,77.18l-13.5,21.1h-2.95l-5.06-21.1h3.1l4.1,17.36,11.18-17.36h3.13Z"/>
        <path class="cls-1" d="M495.61,79.8l-1.29,6.48h10.61l-.51,2.56h-10.61l-1.36,6.81h12.33l-.51,2.62h-15.34l4.22-21.1h14.89l-.51,2.62h-11.9Z"/>
        <path class="cls-1" d="M513.33,77.18h3.01l-3.71,18.47h11.45l-.51,2.62h-14.46l4.22-21.1Z"/>
        <path class="cls-1" d="M526.85,89.63c0-7.02,5.03-12.69,12.81-12.69,6.3,0,9.94,3.62,9.94,8.89,0,7.02-5.06,12.69-12.84,12.69-6.3,0-9.91-3.62-9.91-8.89ZM546.56,86.01c0-3.8-2.47-6.39-7.14-6.39-5.85,0-9.55,4.52-9.55,9.82,0,3.8,2.5,6.39,7.17,6.39,5.85,0,9.52-4.52,9.52-9.82Z"/>
        <path class="cls-1" d="M571.72,83.36c0,5.39-3.8,8.53-9.88,8.53h-5.63l-1.27,6.39h-3.01l4.22-21.1h7.83c4.91,0,7.75,2.26,7.75,6.18ZM568.71,83.63c0-2.53-1.81-3.83-5-3.83h-5.06l-1.9,9.46h5.15c4.31,0,6.81-1.93,6.81-5.64Z"/>
        <path class="cls-1" d="M580.06,79.8l-1.29,6.48h10.61l-.51,2.56h-10.61l-1.36,6.81h12.33l-.51,2.62h-15.34l4.22-21.1h14.89l-.51,2.62h-11.9Z"/>
        <path class="cls-1" d="M607.09,91.41l3.86,6.87h-3.2l-3.68-6.45h-6.21l-1.27,6.45h-3.04l4.22-21.1h7.87c4.94,0,7.78,2.26,7.78,6.18,0,4.19-2.35,7.02-6.33,8.05ZM610.41,83.63c0-2.53-1.81-3.83-5.03-3.83h-5.09l-1.9,9.46h5.21c4.31,0,6.81-1.93,6.81-5.64Z"/>
      </g>
    </g>
  </g>
</svg>