<?xml version="1.0" encoding="UTF-8"?>
<svg id="Calque_2" data-name="Calque 2" xmlns="http://www.w3.org/2000/svg" viewBox="0 0 660.28 136.43">
  <defs>
    <style>
      .cls-1 {
        fill: #fff;
        stroke-width: 0px;
      }
    </style>
  </defs>
  <g id="Calque_1-2" data-name="Calque 1">
    <g>
      <g>
        <polygon class="cls-1" points="53.21 30.83 35.61 30.83 0 69 26.94 106.94 44.94 106.94 17.83 68.76 53.21 30.83"/>
        <polygon class="cls-1" points="252.92 30.86 234.93 30.85 262.04 69.03 226.65 106.97 244.26 106.97 279.86 68.8 252.92 30.86"/>
        <g>
          <polygon class="cls-1" points="202.72 98.3 178.76 110.51 192.86 136.42 223.45 136.43 202.72 98.3"/>
          <path class="cls-1" d="M209.24,83.71l6.72-3.41v-35.8s-10.64,5.75-25.81,13.96c-.45.25-.91.49-1.36.74l-5.64,3.06c-.32.17-.66.36-1,.54l-22.67,12.29-11.8,6.39c-5.82,3.18-11.62,6.33-17.16,9.36l18.76-34.49,5.41,9.92,23.67-12.83L149.31,0l-62.6,115.12c-.6,1.1-11.57,21.29-11.57,21.29h30.59s60.46-30.76,60.46-30.76l7.77-3.95,23.98-12.22,11.31-5.76Z"/>
        </g>
        <path class="cls-1" d="M118.64,0h15.26S58.74,136.41,58.74,136.41h-15.26S118.64,0,118.64,0Z"/>
      </g>
      <g>
        <path class="cls-1" d="M311.23,90.61h-15.84s-4.7,7.41-4.7,7.41h-4.57s19.4-29.65,19.4-29.65h4.19s7.49,29.65,7.49,29.65h-4.19s-1.78-7.41-1.78-7.41ZM310.39,87.22l-3.51-14.61-9.32,14.61h12.83Z"/>
        <path class="cls-1" d="M353.04,68.38l-5.93,29.65h-4.24s2.63-13.13,2.63-13.13h-17.03s-2.63,13.13-2.63,13.13h-4.24s5.93-29.65,5.93-29.65h4.24s-2.54,12.71-2.54,12.71h17.03s2.54-12.71,2.54-12.71h4.24Z"/>
        <path class="cls-1" d="M361.93,68.38h4.24s-5.21,25.97-5.21,25.97h16.1s-.72,3.69-.72,3.69h-20.33s5.93-29.65,5.93-29.65Z"/>
        <path class="cls-1" d="M390.57,72.07l-1.82,9.11h14.91s-.72,3.6-.72,3.6h-14.91s-1.91,9.57-1.91,9.57h17.33s-.72,3.69-.72,3.69h-21.56s5.93-29.65,5.93-29.65h20.92s-.72,3.69-.72,3.69h-16.73Z"/>
        <path class="cls-1" d="M447.03,68.39l-5.93,29.65h-4.07s4.32-21.43,4.32-21.43l-14.02,17.83h-1.95s-7.41-18.26-7.41-18.26l-4.37,21.86h-4.07s5.93-29.65,5.93-29.65h3.43s8.26,20.88,8.26,20.88l16.23-20.88h3.64Z"/>
        <path class="cls-1" d="M467.31,68.4h4.24s-5.21,25.97-5.21,25.97h16.1s-.72,3.69-.72,3.69h-20.33s5.93-29.65,5.93-29.65Z"/>
        <path class="cls-1" d="M507.29,90.64h-15.84s-4.7,7.41-4.7,7.41h-4.57s19.4-29.65,19.4-29.65h4.19s7.49,29.65,7.49,29.65h-4.19s-1.78-7.41-1.78-7.41ZM506.45,87.25l-3.51-14.61-9.32,14.61h12.83Z"/>
        <path class="cls-1" d="M544.82,88.78c0,6.14-5.13,9.28-12.88,9.27h-14.28s5.93-29.65,5.93-29.65h13.13c5.93,0,9.36,2.25,9.36,6.53,0,3.98-2.33,6.65-5.46,7.84,2.58.89,4.19,2.92,4.19,6.02ZM540.63,88.82c0-3.01-2.2-4.07-6.18-4.07h-9.91s-1.95,9.87-1.95,9.87h9.66c5.34,0,8.39-2.03,8.39-5.8ZM527.12,71.83l-1.91,9.49h8.68c4.66,0,7.79-1.9,7.79-5.72,0-2.58-2.16-3.77-5.85-3.77h-8.73Z"/>
        <path class="cls-1" d="M555.66,68.41h4.24s-5.93,29.65-5.93,29.65h-4.24s5.93-29.65,5.93-29.65Z"/>
        <path class="cls-1" d="M583.49,90.65h-15.84s-4.7,7.41-4.7,7.41h-4.57s19.4-29.65,19.4-29.65h4.19s7.49,29.65,7.49,29.65h-4.19s-1.78-7.41-1.78-7.41ZM582.64,87.26l-3.51-14.61-9.32,14.61h12.83Z"/>
        <path class="cls-1" d="M599.8,68.41h11.61c8.98,0,14.19,4.79,14.19,12.16,0,10.46-7.37,17.49-18.47,17.49h-13.26s5.93-29.65,5.93-29.65ZM607.25,94.38c8.73,0,14.06-5.72,14.07-13.55,0-5.34-3.43-8.73-10.33-8.73h-7.71s-4.45,22.28-4.45,22.28h8.43Z"/>
        <path class="cls-1" d="M660.28,68.42l-5.93,29.65h-4.24s2.63-13.13,2.63-13.13h-17.03s-2.63,13.13-2.63,13.13h-4.24s5.93-29.65,5.93-29.65h4.24s-2.54,12.71-2.54,12.71h17.03s2.54-12.71,2.54-12.71h4.24Z"/>
      </g>
      <g>
        <path class="cls-1" d="M281.06,111.51l-1.76,8.76h10.9s-.26,1.35-.26,1.35h-10.9s-1.82,9.06-1.82,9.06h-1.5s4.11-20.52,4.11-20.52h13.72s-.29,1.35-.29,1.35h-12.19Z"/>
        <path class="cls-1" d="M306.18,123.65l3.96,7.04h-1.64s-3.84-6.8-3.84-6.8c-.47.03-.94.06-1.44.06h-6.16s-1.35,6.74-1.35,6.74h-1.5s4.11-20.52,4.11-20.52h7.18c4.51,0,7.12,2.05,7.12,5.66,0,4.28-2.4,6.98-6.45,7.83ZM311.14,115.94c0-2.87-2.05-4.43-5.72-4.43h-5.86s-2.23,11.11-2.23,11.11h5.89c5.01,0,7.91-2.26,7.91-6.68Z"/>
        <path class="cls-1" d="M315.25,122.39c0-6.65,4.72-12.37,12.28-12.37,6.04,0,9.41,3.4,9.41,8.44,0,6.65-4.75,12.37-12.31,12.37-6.04,0-9.38-3.4-9.38-8.44ZM335.41,118.53c0-4.25-2.73-7.12-8-7.12-6.48,0-10.67,5.01-10.67,10.93,0,4.25,2.75,7.12,8.03,7.12,6.48,0,10.64-5.01,10.64-10.93Z"/>
        <path class="cls-1" d="M360.71,110.18l-4.11,20.52h-1.26s-10.34-18.06-10.34-18.06l-3.61,18.06h-1.5s4.11-20.52,4.11-20.52h1.23s10.37,18.06,10.37,18.06l3.61-18.06h1.5Z"/>
        <path class="cls-1" d="M371.51,111.53h-7.39s.29-1.35.29-1.35h16.27s-.26,1.35-.26,1.35h-7.39s-3.84,19.17-3.84,19.17h-1.5s3.81-19.17,3.81-19.17Z"/>
        <path class="cls-1" d="M393.14,111.53l-1.61,8.09h10.9s-.26,1.32-.26,1.32h-10.9s-1.7,8.41-1.7,8.41h12.66s-.29,1.35-.29,1.35h-14.13s4.11-20.52,4.11-20.52h13.72s-.29,1.35-.29,1.35h-12.19Z"/>
        <path class="cls-1" d="M428.23,110.18l-4.11,20.52h-1.26s-10.34-18.06-10.34-18.06l-3.61,18.06h-1.5s4.11-20.52,4.11-20.52h1.23s10.37,18.06,10.37,18.06l3.61-18.06h1.5Z"/>
        <path class="cls-1" d="M435.39,110.19h7.62c6.16,0,9.56,3.31,9.55,8.3,0,7.15-5.01,12.22-12.78,12.22h-8.5s4.11-20.52,4.11-20.52ZM439.87,129.36c6.86,0,11.17-4.51,11.17-10.81,0-4.22-2.7-7.01-8.21-7.01h-6.21s-3.58,17.82-3.58,17.82h6.83Z"/>
        <path class="cls-1" d="M467.14,110.19h7.62c6.16,0,9.56,3.31,9.55,8.3,0,7.15-5.01,12.22-12.78,12.22h-8.5s4.11-20.52,4.11-20.52ZM471.62,129.36c6.86,0,11.17-4.51,11.17-10.81,0-4.22-2.7-7.01-8.21-7.01h-6.21s-3.58,17.82-3.58,17.82h6.83Z"/>
        <path class="cls-1" d="M492.59,111.54l-1.61,8.09h10.9s-.26,1.32-.26,1.32h-10.9s-1.7,8.41-1.7,8.41h12.66s-.29,1.35-.29,1.35h-14.13s4.11-20.52,4.11-20.52h13.72s-.29,1.35-.29,1.35h-12.19Z"/>
        <path class="cls-1" d="M527.06,110.2l-13.28,20.52h-1.47s-5.07-20.52-5.07-20.52h1.58s4.54,18.58,4.54,18.58l12.05-18.58h1.64Z"/>
        <path class="cls-1" d="M531.61,111.55l-1.61,8.09h10.9s-.26,1.32-.26,1.32h-10.9s-1.7,8.41-1.7,8.41h12.66s-.29,1.35-.29,1.35h-14.13s4.11-20.52,4.11-20.52h13.72s-.29,1.35-.29,1.35h-12.19Z"/>
        <path class="cls-1" d="M549.99,110.2h1.5s-3.84,19.17-3.84,19.17h11.81s-.29,1.35-.29,1.35h-13.28s4.11-20.52,4.11-20.52Z"/>
        <path class="cls-1" d="M562.54,122.43c0-6.65,4.72-12.37,12.28-12.37,6.04,0,9.41,3.4,9.41,8.44,0,6.65-4.75,12.37-12.31,12.37-6.04,0-9.38-3.4-9.38-8.44ZM582.7,118.56c0-4.25-2.73-7.12-8-7.12-6.48,0-10.67,5.01-10.67,10.93,0,4.25,2.75,7.12,8.03,7.12,6.48,0,10.64-5.01,10.64-10.93Z"/>
        <path class="cls-1" d="M605.6,115.87c0,5.28-3.64,8.15-9.44,8.15h-6.13s-1.35,6.71-1.35,6.71h-1.5s4.11-20.52,4.11-20.52h7.15c4.51,0,7.15,2.05,7.15,5.66ZM604.08,115.98c0-2.87-2.05-4.43-5.72-4.43h-5.83s-2.23,11.11-2.23,11.11h5.86c5.01,0,7.91-2.26,7.91-6.68Z"/>
        <path class="cls-1" d="M613.2,111.56l-1.61,8.09h10.9s-.26,1.32-.26,1.32h-10.9s-1.7,8.41-1.7,8.41h12.66s-.29,1.35-.29,1.35h-14.13s4.11-20.52,4.11-20.52h13.72s-.29,1.35-.29,1.35h-12.19Z"/>
        <path class="cls-1" d="M639.43,123.7l3.96,7.04h-1.64s-3.84-6.8-3.84-6.8c-.47.03-.94.06-1.44.06h-6.16s-1.35,6.74-1.35,6.74h-1.5s4.11-20.52,4.11-20.52h7.18c4.51,0,7.12,2.05,7.12,5.66,0,4.28-2.4,6.98-6.45,7.83ZM644.39,115.99c0-2.87-2.05-4.43-5.72-4.43h-5.86s-2.23,11.11-2.23,11.11h5.89c5.01,0,7.91-2.26,7.91-6.68Z"/>
      </g>
    </g>
  </g>
</svg>