<?xml version="1.0" encoding="UTF-8"?>
<svg id="Calque_2" data-name="Calque 2" xmlns="http://www.w3.org/2000/svg" viewBox="0 0 451.09 141.72">
  <defs>
    <style>
      .cls-1 {
        fill: #fff;
        stroke-width: 0px;
      }
    </style>
  </defs>
  <g id="Calque_1-2" data-name="Calque 1">
    <g>
      <g>
        <polygon class="cls-1" points="55.27 23.83 36.99 23.83 0 63.48 27.98 102.9 46.68 102.9 18.52 63.24 55.27 23.83"/>
        <polygon class="cls-1" points="258.19 23.86 239.5 23.86 267.66 63.52 230.9 102.92 249.19 102.93 286.18 63.27 258.19 23.86"/>
        <g>
          <polygon class="cls-1" points="210.58 102.11 185.69 114.8 200.34 141.71 232.11 141.72 210.58 102.11"/>
          <path class="cls-1" d="M217.35,86.96l6.98-3.55v-37.18s-11.05,5.97-26.81,14.5c-.47.26-.95.51-1.41.77l-5.86,3.18c-.34.18-.69.37-1.04.56l-23.54,12.77-12.26,6.64c-6.05,3.31-12.07,6.58-17.83,9.72l19.49-35.83,5.62,10.3,24.59-13.33L155.1,0l-65.03,119.58c-.63,1.14-12.02,22.11-12.02,22.11h31.77s62.8-31.95,62.8-31.95l8.07-4.11,24.91-12.69,11.75-5.98Z"/>
        </g>
        <path class="cls-1" d="M123.23,0h15.85S61.01,141.69,61.01,141.69h-15.85S123.23,0,123.23,0Z"/>
      </g>
      <g>
        <path class="cls-1" d="M312.94,88.55h-12.65s-3.76,5.92-3.76,5.92h-3.65s15.5-23.68,15.5-23.68h3.35s5.99,23.68,5.99,23.68h-3.35s-1.42-5.92-1.42-5.92ZM312.26,85.85l-2.81-11.67-7.44,11.67h10.25Z"/>
        <path class="cls-1" d="M346.33,70.8l-4.74,23.68h-3.38s2.1-10.49,2.1-10.49h-13.6s-2.1,10.49-2.1,10.49h-3.38s4.74-23.68,4.74-23.68h3.38s-2.03,10.15-2.03,10.15h13.6s2.03-10.15,2.03-10.15h3.38Z"/>
        <path class="cls-1" d="M353.43,70.8h3.38s-4.16,20.74-4.16,20.74h12.86s-.58,2.94-.58,2.94h-16.24s4.74-23.68,4.74-23.68Z"/>
        <path class="cls-1" d="M376.3,73.74l-1.46,7.27h11.91s-.57,2.88-.57,2.88h-11.91s-1.52,7.64-1.52,7.64h13.84s-.58,2.95-.58,2.95h-17.22s4.74-23.68,4.74-23.68h16.71s-.57,2.94-.57,2.94h-13.36Z"/>
        <path class="cls-1" d="M421.39,70.81l-4.74,23.68h-3.25s3.45-17.12,3.45-17.12l-11.2,14.24h-1.56s-5.92-14.58-5.92-14.58l-3.49,17.46h-3.25s4.74-23.68,4.74-23.68h2.74s6.59,16.68,6.59,16.68l12.96-16.68h2.91Z"/>
      </g>
      <g>
        <path class="cls-1" d="M275.5,109.17h3.85s-4.74,23.63-4.74,23.63h14.65s-.66,3.36-.66,3.36h-18.5s5.4-26.98,5.4-26.98Z"/>
        <path class="cls-1" d="M311.88,129.41h-14.42s-4.28,6.74-4.28,6.74h-4.16s17.66-26.98,17.66-26.98h3.82s6.82,26.98,6.82,26.98h-3.82s-1.62-6.75-1.62-6.75ZM311.11,126.32l-3.2-13.3-8.48,13.3h11.68Z"/>
        <path class="cls-1" d="M346.03,127.71c0,5.59-4.67,8.44-11.72,8.44h-12.99s5.4-26.98,5.4-26.98h11.95c5.4,0,8.52,2.05,8.52,5.94,0,3.62-2.12,6.05-4.97,7.13,2.35.81,3.82,2.66,3.82,5.47ZM342.21,127.75c0-2.74-2-3.7-5.63-3.7h-9.02s-1.77,8.98-1.77,8.98h8.79c4.86,0,7.63-1.85,7.63-5.28ZM329.92,112.29l-1.74,8.63h7.9c4.24,0,7.09-1.73,7.09-5.2,0-2.35-1.97-3.43-5.32-3.43h-7.94Z"/>
        <path class="cls-1" d="M355.89,109.18h3.85s-5.4,26.98-5.4,26.98h-3.85s5.4-26.98,5.4-26.98Z"/>
        <path class="cls-1" d="M381.21,129.41h-14.42s-4.28,6.74-4.28,6.74h-4.16s17.66-26.98,17.66-26.98h3.82s6.82,26.98,6.82,26.98h-3.82s-1.62-6.75-1.62-6.75ZM380.44,126.33l-3.2-13.3-8.48,13.3h11.68Z"/>
        <path class="cls-1" d="M396.05,109.18h10.56c8.17,0,12.91,4.36,12.91,11.06,0,9.52-6.71,15.92-16.81,15.92h-12.06s5.4-26.98,5.4-26.98ZM402.83,132.81c7.94,0,12.8-5.2,12.8-12.33,0-4.86-3.12-7.94-9.4-7.94h-7.02s-4.05,20.27-4.05,20.27h7.67Z"/>
        <path class="cls-1" d="M451.09,109.19l-5.4,26.98h-3.85s2.39-11.95,2.39-11.95h-15.5s-2.39,11.95-2.39,11.95h-3.85s5.4-26.98,5.4-26.98h3.85s-2.31,11.56-2.31,11.56h15.49s2.31-11.56,2.31-11.56h3.85Z"/>
      </g>
    </g>
  </g>
</svg>